<svg xmlns="http://www.w3.org/2000/svg" width="32" height="32" viewBox="0 0 32 32">
  <!-- Red stripes -->
  <rect width="32" height="2.46" fill="#B22234"/>
  <rect y="4.92" width="32" height="2.46" fill="#B22234"/>
  <rect y="9.84" width="32" height="2.46" fill="#B22234"/>
  <rect y="14.76" width="32" height="2.46" fill="#B22234"/>
  <rect y="19.68" width="32" height="2.46" fill="#B22234"/>
  <rect y="24.6" width="32" height="2.46" fill="#B22234"/>
  <rect y="29.52" width="32" height="2.48" fill="#B22234"/>
  
  <!-- White stripes -->
  <rect y="2.46" width="32" height="2.46" fill="white"/>
  <rect y="7.38" width="32" height="2.46" fill="white"/>
  <rect y="12.3" width="32" height="2.46" fill="white"/>
  <rect y="17.22" width="32" height="2.46" fill="white"/>
  <rect y="22.14" width="32" height="2.46" fill="white"/>
  <rect y="27.06" width="32" height="2.46" fill="white"/>
  
  <!-- Blue canton -->
  <rect width="12.8" height="17.22" fill="#3C3B6E"/>
  
  <!-- Simplified stars (5 rows) -->
  <g fill="white">
    <!-- Row 1 - 6 stars -->
    <circle cx="1.3" cy="1.5" r="0.5"/>
    <circle cx="3.2" cy="1.5" r="0.5"/>
    <circle cx="5.1" cy="1.5" r="0.5"/>
    <circle cx="7" cy="1.5" r="0.5"/>
    <circle cx="8.9" cy="1.5" r="0.5"/>
    <circle cx="10.8" cy="1.5" r="0.5"/>
    
    <!-- Row 2 - 5 stars -->
    <circle cx="2.25" cy="3.5" r="0.5"/>
    <circle cx="4.15" cy="3.5" r="0.5"/>
    <circle cx="6.05" cy="3.5" r="0.5"/>
    <circle cx="7.95" cy="3.5" r="0.5"/>
    <circle cx="9.85" cy="3.5" r="0.5"/>
    
    <!-- Row 3 - 6 stars -->
    <circle cx="1.3" cy="5.5" r="0.5"/>
    <circle cx="3.2" cy="5.5" r="0.5"/>
    <circle cx="5.1" cy="5.5" r="0.5"/>
    <circle cx="7" cy="5.5" r="0.5"/>
    <circle cx="8.9" cy="5.5" r="0.5"/>
    <circle cx="10.8" cy="5.5" r="0.5"/>
    
    <!-- Row 4 - 5 stars -->
    <circle cx="2.25" cy="7.5" r="0.5"/>
    <circle cx="4.15" cy="7.5" r="0.5"/>
    <circle cx="6.05" cy="7.5" r="0.5"/>
    <circle cx="7.95" cy="7.5" r="0.5"/>
    <circle cx="9.85" cy="7.5" r="0.5"/>
    
    <!-- Row 5 - 6 stars -->
    <circle cx="1.3" cy="9.5" r="0.5"/>
    <circle cx="3.2" cy="9.5" r="0.5"/>
    <circle cx="5.1" cy="9.5" r="0.5"/>
    <circle cx="7" cy="9.5" r="0.5"/>
    <circle cx="8.9" cy="9.5" r="0.5"/>
    <circle cx="10.8" cy="9.5" r="0.5"/>
    
    <!-- Row 6 - 5 stars -->
    <circle cx="2.25" cy="11.5" r="0.5"/>
    <circle cx="4.15" cy="11.5" r="0.5"/>
    <circle cx="6.05" cy="11.5" r="0.5"/>
    <circle cx="7.95" cy="11.5" r="0.5"/>
    <circle cx="9.85" cy="11.5" r="0.5"/>
    
    <!-- Row 7 - 6 stars -->
    <circle cx="1.3" cy="13.5" r="0.5"/>
    <circle cx="3.2" cy="13.5" r="0.5"/>
    <circle cx="5.1" cy="13.5" r="0.5"/>
    <circle cx="7" cy="13.5" r="0.5"/>
    <circle cx="8.9" cy="13.5" r="0.5"/>
    <circle cx="10.8" cy="13.5" r="0.5"/>
    
    <!-- Row 8 - 5 stars -->
    <circle cx="2.25" cy="15.5" r="0.5"/>
    <circle cx="4.15" cy="15.5" r="0.5"/>
    <circle cx="6.05" cy="15.5" r="0.5"/>
    <circle cx="7.95" cy="15.5" r="0.5"/>
    <circle cx="9.85" cy="15.5" r="0.5"/>
  </g>
</svg>
