<svg xmlns="http://www.w3.org/2000/svg" width="38" height="20" viewBox="0 0 38 20">
  <!-- Red stripes -->
  <rect width="38" height="1.54" fill="#B22234"/>
  <rect y="3.08" width="38" height="1.54" fill="#B22234"/>
  <rect y="6.16" width="38" height="1.54" fill="#B22234"/>
  <rect y="9.24" width="38" height="1.54" fill="#B22234"/>
  <rect y="12.32" width="38" height="1.54" fill="#B22234"/>
  <rect y="15.4" width="38" height="1.54" fill="#B22234"/>
  <rect y="18.46" width="38" height="1.54" fill="#B22234"/>
  
  <!-- White stripes -->
  <rect y="1.54" width="38" height="1.54" fill="white"/>
  <rect y="4.62" width="38" height="1.54" fill="white"/>
  <rect y="7.7" width="38" height="1.54" fill="white"/>
  <rect y="10.78" width="38" height="1.54" fill="white"/>
  <rect y="13.86" width="38" height="1.54" fill="white"/>
  <rect y="16.94" width="38" height="1.54" fill="white"/>
  
  <!-- Blue canton -->
  <rect width="15.2" height="10.78" fill="#3C3B6E"/>
  
  <!-- Stars -->
  <g fill="white">
    <!-- Row 1 - 6 stars -->
    <circle cx="1.5" cy="1" r="0.4"/>
    <circle cx="3.8" cy="1" r="0.4"/>
    <circle cx="6.1" cy="1" r="0.4"/>
    <circle cx="8.4" cy="1" r="0.4"/>
    <circle cx="10.7" cy="1" r="0.4"/>
    <circle cx="13" cy="1" r="0.4"/>
    
    <!-- Row 2 - 5 stars -->
    <circle cx="2.65" cy="2.2" r="0.4"/>
    <circle cx="4.95" cy="2.2" r="0.4"/>
    <circle cx="7.25" cy="2.2" r="0.4"/>
    <circle cx="9.55" cy="2.2" r="0.4"/>
    <circle cx="11.85" cy="2.2" r="0.4"/>
    
    <!-- Row 3 - 6 stars -->
    <circle cx="1.5" cy="3.4" r="0.4"/>
    <circle cx="3.8" cy="3.4" r="0.4"/>
    <circle cx="6.1" cy="3.4" r="0.4"/>
    <circle cx="8.4" cy="3.4" r="0.4"/>
    <circle cx="10.7" cy="3.4" r="0.4"/>
    <circle cx="13" cy="3.4" r="0.4"/>
    
    <!-- Row 4 - 5 stars -->
    <circle cx="2.65" cy="4.6" r="0.4"/>
    <circle cx="4.95" cy="4.6" r="0.4"/>
    <circle cx="7.25" cy="4.6" r="0.4"/>
    <circle cx="9.55" cy="4.6" r="0.4"/>
    <circle cx="11.85" cy="4.6" r="0.4"/>
    
    <!-- Row 5 - 6 stars -->
    <circle cx="1.5" cy="5.8" r="0.4"/>
    <circle cx="3.8" cy="5.8" r="0.4"/>
    <circle cx="6.1" cy="5.8" r="0.4"/>
    <circle cx="8.4" cy="5.8" r="0.4"/>
    <circle cx="10.7" cy="5.8" r="0.4"/>
    <circle cx="13" cy="5.8" r="0.4"/>
    
    <!-- Row 6 - 5 stars -->
    <circle cx="2.65" cy="7" r="0.4"/>
    <circle cx="4.95" cy="7" r="0.4"/>
    <circle cx="7.25" cy="7" r="0.4"/>
    <circle cx="9.55" cy="7" r="0.4"/>
    <circle cx="11.85" cy="7" r="0.4"/>
    
    <!-- Row 7 - 6 stars -->
    <circle cx="1.5" cy="8.2" r="0.4"/>
    <circle cx="3.8" cy="8.2" r="0.4"/>
    <circle cx="6.1" cy="8.2" r="0.4"/>
    <circle cx="8.4" cy="8.2" r="0.4"/>
    <circle cx="10.7" cy="8.2" r="0.4"/>
    <circle cx="13" cy="8.2" r="0.4"/>
    
    <!-- Row 8 - 5 stars -->
    <circle cx="2.65" cy="9.4" r="0.4"/>
    <circle cx="4.95" cy="9.4" r="0.4"/>
    <circle cx="7.25" cy="9.4" r="0.4"/>
    <circle cx="9.55" cy="9.4" r="0.4"/>
    <circle cx="11.85" cy="9.4" r="0.4"/>
  </g>
</svg>
